# xmcd
#
# Track frame offsets:
#	150
#	10955
#	21862
#	33572
#	45935
#	56657
#	66727
#	79412
#	87265
#	99567
#	109217
#	120852
#	131057
#	141255
#	151072
#	162050
#	173402
#	187897
#	200150
#	212375
#	226625
#
# Disc length: 3184
#
# Revision: 2
# Processed by: cddbd v1.5.1PL0 Copyright (c) Steve Scherf et al.
# Submitted via: ExactAudioCopy v0.90b4
# Normalized: r0:DSETVAR1,TDELIM( - ),TSWAP
#
DISCID=100c6e15
DTITLE=Various Artist - The Golden Age Of Country Music - Disc 4
DYEAR=1900
DGENRE=Country
TTITLE0=Don Gibson - Lonesome Number One
TTITLE1=Geroge Jones - Tender Years
TTITLE2=Porter Wagoner - Misery Loves Company
TTITLE3=Patsy Cline - Crazy
TTITLE4=Leroy Van Dyke - Walk On By
TTITLE5=Geroge Hamilton IV - Abilene
TTITLE6=Bobby Bare - Detroit City
TTITLE7=Roger Miller - Dang Me
TTITLE8=Roy Clark - The Tip Of My Fingers
TTITLE9=George Jones - The Race Is On
TTITLE10=Webb Pierce - Memory Number One
TTITLE11=Jim Reeves - Is It Really Over
TTITLE12=Roger Miller - Engine, Engine No. 9
TTITLE13=Eddy Arnold - What's He Doing In My World
TTITLE14=Porter Wagoner - Green, Green Grass Of Home
TTITLE15=Sonny James - Take Good Care Of Her
TTITLE16=Charley Pride - Kaw-Liga
TTITLE17=Glen Campbell - By The Time I Get To Phoenix
TTITLE18=Bill Anderson With The Po' Boys - My Life
TTITLE19=Hank Williams, Jr. - Standing In The Shawdows
TTITLE20=Merle Haggard - Okie From Muskogee
EXTD=
EXTT0=
EXTT1=
EXTT2=
EXTT3=
EXTT4=
EXTT5=
EXTT6=
EXTT7=
EXTT8=
EXTT9=
EXTT10=
EXTT11=
EXTT12=
EXTT13=
EXTT14=
EXTT15=
EXTT16=
EXTT17=
EXTT18=
EXTT19=
EXTT20=
PLAYORDER=
